# xmcd CD database file
#
# Track frame offsets:
#	150
#	23691
#	43165
#	62462
#	82134
#	99423
#	141602
#	164050
#	182578
#	203752
#	224070
#	242204
#
# Disc length: 3527 seconds
#
# Revision: 5
# Processed by: cddbd v1.5.2PL0 Copyright (c) Steve Scherf et al.
# Submitted via: CDex 2.21
#
DISCID=b50dc50c
DTITLE=Berlin - Metro Greatest Hits
DYEAR=2004
DGENRE=Blues
TTITLE0=Sex(I'm A)
TTITLE1=Metro
TTITLE2=Masquerade
TTITLE3=Take My Breath Away
TTITLE4=Not It's My Turn(Aqualite Mix)
TTITLE5=Sex(I'm A)(Rosetta Stone Extended Remix)
TTITLE6=Dancing In Berlin(Astralasia Mix)
TTITLE7=No More Words(Meeks Mix)
TTITLE8=Take My Breath Away(Mission UK Mix)
TTITLE9=Metro(Sigue Sigue Sputnik Mix)
TTITLE10=Masquerade(Interface Mix)
TTITLE11=Pleasure Victim(Transmutator Mix)
EXTD=YEAR: 2004
EXTT0=
EXTT1=
EXTT2=
EXTT3=
EXTT4=
EXTT5=
EXTT6=
EXTT7=
EXTT8=
EXTT9=
EXTT10=
EXTT11=
PLAYORDER=
